<svg class="diagram-root" style="background: #f5f6f6" xmlns="http://www.w3.org/2000/svg" xmlns:xlink="http://www.w3.org/1999/xlink"><style>.diagram-root { font-family: "Helvetica Neue", sans-serif; font-size: 12px; } .t { overflow: visible; } .t-bg { y: 40; fill: #fff;   } .th { fill: #005aa0;   } .tht { fill: #fff; font-size: 14px;  } .tf { fill: #323c46; overflow: visible; } .tf.pk { fill: #005aa0; font-weight: bold; } .tf.fk { font-weight: bold; } .ty { fill: #adb1b5; font-weight: normal; text-anchor: end; } .r { fill: transparent; stroke: #c3c3c3; stroke-width: 1; } .l { stroke: 1; } .i { fill: #c2c7ce; stroke: #c2c7ce; } .i.ix { fill: #afb3b6; stroke: #000; } .fa { fill: transparent; overflow: visible; } .fa .bg.hover { fill: #f7f7f7; } .c { cy: 12; r: 4; stroke: #d2d2dc; fill: #d2d2dc; } .hr { fill: transparent; stroke: #323c46; stroke-opacity: 0.035; stroke-width: 13; } .dc { stroke: #fa5a3c; fill: #fa5a3c; } .x { stroke: white; stroke-width: 1; } .hl .th { fill: #1b9bff; } .hl .tht {  } .fhl .bg { fill: #e7f4ff; } .fhls .bg {  } .r.hl { stroke: #1b9bff; } .dim { opacity: 0.25; }</style><g class="drawing-wrapper" transform="translate(-176.11, -45.44) scale(1,1)"><g class="rs"><path d="M 971.51 140 m -1, 0 a 1,1 0 1,0 2,0 a 1,1 0 1,0 -2,0 M 971.51 140 m -0.5, 0 a 0.5,0.5 0 1,0 1,0 a 0.5,0.5 0 1,0 -1,0  M971.51 140 L971.51 140 983.51 140 M 971.51 146 m -1, 0 a 1,1 0 1,0 2,0 a 1,1 0 1,0 -2,0 M 971.51 146 m -0.5, 0 a 0.5,0.5 0 1,0 1,0 a 0.5,0.5 0 1,0 -1,0  M971.51 146 L971.51 146 978.51 140 971.51 134 M 971.51 134 m -1, 0 a 1,1 0 1,0 2,0 a 1,1 0 1,0 -2,0 M 971.51 134 m -0.5, 0 a 0.5,0.5 0 1,0 1,0 a 0.5,0.5 0 1,0 -1,0  M983.51 140 Q 1005.35 140, 1027.18 247.32 T 1070.85 354.64 M 1082.85 354.64 m -1, 0 a 1,1 0 1,0 2,0 a 1,1 0 1,0 -2,0 M 1082.85 354.64 m -0.5, 0 a 0.5,0.5 0 1,0 1,0 a 0.5,0.5 0 1,0 -1,0  M1082.85 354.64 L1082.85 354.64 1070.85 354.64 M1076.85 360.64 L1076.85 360.64 1076.85 348.64" id="h3100570010" class="r"></path><path d="M 814.12 165 m -1, 0 a 1,1 0 1,0 2,0 a 1,1 0 1,0 -2,0 M 814.12 165 m -0.5, 0 a 0.5,0.5 0 1,0 1,0 a 0.5,0.5 0 1,0 -1,0  M814.12 165 L814.12 165 802.12 165 M 814.12 171 m -1, 0 a 1,1 0 1,0 2,0 a 1,1 0 1,0 -2,0 M 814.12 171 m -0.5, 0 a 0.5,0.5 0 1,0 1,0 a 0.5,0.5 0 1,0 -1,0  M814.12 171 L814.12 171 807.12 165 814.12 159 M 814.12 159 m -1, 0 a 1,1 0 1,0 2,0 a 1,1 0 1,0 -2,0 M 814.12 159 m -0.5, 0 a 0.5,0.5 0 1,0 1,0 a 0.5,0.5 0 1,0 -1,0  M802.12 165 Q 772.21 165, 742.31 205.08 T 682.5 245.15 M 670.5 245.15 m -1, 0 a 1,1 0 1,0 2,0 a 1,1 0 1,0 -2,0 M 670.5 245.15 m -0.5, 0 a 0.5,0.5 0 1,0 1,0 a 0.5,0.5 0 1,0 -1,0  M670.5 245.15 L670.5 245.15 682.5 245.15 M676.5 251.15 L676.5 251.15 676.5 239.15" id="h2753429567" class="r"></path><path d="M 960.72 288.45 m -1, 0 a 1,1 0 1,0 2,0 a 1,1 0 1,0 -2,0 M 960.72 288.45 m -0.5, 0 a 0.5,0.5 0 1,0 1,0 a 0.5,0.5 0 1,0 -1,0  M960.72 288.45 L960.72 288.45 972.72 288.45 M 960.72 294.45 m -1, 0 a 1,1 0 1,0 2,0 a 1,1 0 1,0 -2,0 M 960.72 294.45 m -0.5, 0 a 0.5,0.5 0 1,0 1,0 a 0.5,0.5 0 1,0 -1,0  M960.72 294.45 L960.72 294.45 967.72 288.45 960.72 282.45 M 960.72 282.45 m -1, 0 a 1,1 0 1,0 2,0 a 1,1 0 1,0 -2,0 M 960.72 282.45 m -0.5, 0 a 0.5,0.5 0 1,0 1,0 a 0.5,0.5 0 1,0 -1,0  M972.72 288.45 Q 997.26 288.45, 1021.79 321.54 T 1070.85 354.64 M 1082.85 354.64 m -1, 0 a 1,1 0 1,0 2,0 a 1,1 0 1,0 -2,0 M 1082.85 354.64 m -0.5, 0 a 0.5,0.5 0 1,0 1,0 a 0.5,0.5 0 1,0 -1,0  M1082.85 354.64 L1082.85 354.64 1070.85 354.64 M1076.85 360.64 L1076.85 360.64 1076.85 348.64" id="h136505921" class="r"></path><path d="M 826.56 313.45 m -1, 0 a 1,1 0 1,0 2,0 a 1,1 0 1,0 -2,0 M 826.56 313.45 m -0.5, 0 a 0.5,0.5 0 1,0 1,0 a 0.5,0.5 0 1,0 -1,0  M826.56 313.45 L826.56 313.45 814.56 313.45 M 826.56 319.45 m -1, 0 a 1,1 0 1,0 2,0 a 1,1 0 1,0 -2,0 M 826.56 319.45 m -0.5, 0 a 0.5,0.5 0 1,0 1,0 a 0.5,0.5 0 1,0 -1,0  M826.56 319.45 L826.56 319.45 819.56 313.45 826.56 307.45 M 826.56 307.45 m -1, 0 a 1,1 0 1,0 2,0 a 1,1 0 1,0 -2,0 M 826.56 307.45 m -0.5, 0 a 0.5,0.5 0 1,0 1,0 a 0.5,0.5 0 1,0 -1,0  M814.56 313.45 Q 781.55 313.45, 748.53 279.3 T 682.5 245.15 M 670.5 245.15 m -1, 0 a 1,1 0 1,0 2,0 a 1,1 0 1,0 -2,0 M 670.5 245.15 m -0.5, 0 a 0.5,0.5 0 1,0 1,0 a 0.5,0.5 0 1,0 -1,0  M670.5 245.15 L670.5 245.15 682.5 245.15 M676.5 251.15 L676.5 251.15 676.5 239.15" id="h4055908460" class="r"></path><path d="M 964.06 590.97 m -1, 0 a 1,1 0 1,0 2,0 a 1,1 0 1,0 -2,0 M 964.06 590.97 m -0.5, 0 a 0.5,0.5 0 1,0 1,0 a 0.5,0.5 0 1,0 -1,0  M964.06 590.97 L964.06 590.97 976.06 590.97 M 964.06 596.97 m -1, 0 a 1,1 0 1,0 2,0 a 1,1 0 1,0 -2,0 M 964.06 596.97 m -0.5, 0 a 0.5,0.5 0 1,0 1,0 a 0.5,0.5 0 1,0 -1,0  M964.06 596.97 L964.06 596.97 971.06 590.97 964.06 584.97 M 964.06 584.97 m -1, 0 a 1,1 0 1,0 2,0 a 1,1 0 1,0 -2,0 M 964.06 584.97 m -0.5, 0 a 0.5,0.5 0 1,0 1,0 a 0.5,0.5 0 1,0 -1,0  M976.06 590.97 Q 999.76 590.97, 1023.46 472.81 T 1070.85 354.64 M 1082.85 354.64 m -1, 0 a 1,1 0 1,0 2,0 a 1,1 0 1,0 -2,0 M 1082.85 354.64 m -0.5, 0 a 0.5,0.5 0 1,0 1,0 a 0.5,0.5 0 1,0 -1,0  M1082.85 354.64 L1082.85 354.64 1070.85 354.64 M1076.85 360.64 L1076.85 360.64 1076.85 348.64" id="h1489946974" class="r"></path><path d="M 837.09 640.97 m -1, 0 a 1,1 0 1,0 2,0 a 1,1 0 1,0 -2,0 M 837.09 640.97 m -0.5, 0 a 0.5,0.5 0 1,0 1,0 a 0.5,0.5 0 1,0 -1,0  M837.09 640.97 L837.09 640.97 825.09 640.97 M 837.09 646.97 m -1, 0 a 1,1 0 1,0 2,0 a 1,1 0 1,0 -2,0 M 837.09 646.97 m -0.5, 0 a 0.5,0.5 0 1,0 1,0 a 0.5,0.5 0 1,0 -1,0  M837.09 646.97 L837.09 646.97 830.09 640.97 837.09 634.97 M 837.09 634.97 m -1, 0 a 1,1 0 1,0 2,0 a 1,1 0 1,0 -2,0 M 837.09 634.97 m -0.5, 0 a 0.5,0.5 0 1,0 1,0 a 0.5,0.5 0 1,0 -1,0  M825.09 640.97 Q 789.45 640.97, 753.8 443.06 T 682.5 245.15 M 670.5 245.15 m -1, 0 a 1,1 0 1,0 2,0 a 1,1 0 1,0 -2,0 M 670.5 245.15 m -0.5, 0 a 0.5,0.5 0 1,0 1,0 a 0.5,0.5 0 1,0 -1,0  M670.5 245.15 L670.5 245.15 682.5 245.15 M676.5 251.15 L676.5 251.15 676.5 239.15" id="h1445157379" class="r"></path><path d="M 1255.67 132.44 m -1, 0 a 1,1 0 1,0 2,0 a 1,1 0 1,0 -2,0 M 1255.67 132.44 m -0.5, 0 a 0.5,0.5 0 1,0 1,0 a 0.5,0.5 0 1,0 -1,0  M1255.67 132.44 L1255.67 132.44 1267.67 132.44 M1261.67 138.44 L1261.67 138.44 1261.67 126.44 M1267.67 132.44 C 1343.5259999999998 132.44, 1333.83 354.64, 1283.83 354.64 M 1271.83 354.64 m -1, 0 a 1,1 0 1,0 2,0 a 1,1 0 1,0 -2,0 M 1271.83 354.64 m -0.5, 0 a 0.5,0.5 0 1,0 1,0 a 0.5,0.5 0 1,0 -1,0  M1271.83 354.64 L1271.83 354.64 1283.83 354.64 M1277.83 360.64 L1277.83 360.64 1277.83 348.64" id="h1137132637" class="r"></path><path d="M 670.5 395.15 m -1, 0 a 1,1 0 1,0 2,0 a 1,1 0 1,0 -2,0 M 670.5 395.15 m -0.5, 0 a 0.5,0.5 0 1,0 1,0 a 0.5,0.5 0 1,0 -1,0  M670.5 395.15 L670.5 395.15 682.5 395.15 M 670.5 401.15 m -1, 0 a 1,1 0 1,0 2,0 a 1,1 0 1,0 -2,0 M 670.5 401.15 m -0.5, 0 a 0.5,0.5 0 1,0 1,0 a 0.5,0.5 0 1,0 -1,0  M670.5 401.15 L670.5 401.15 677.5 395.15 670.5 389.15 M 670.5 389.15 m -1, 0 a 1,1 0 1,0 2,0 a 1,1 0 1,0 -2,0 M 670.5 389.15 m -0.5, 0 a 0.5,0.5 0 1,0 1,0 a 0.5,0.5 0 1,0 -1,0  M682.5 395.15 Q 779.59 395.15, 876.68 374.9 T 1070.85 354.64 M 1082.85 354.64 m -1, 0 a 1,1 0 1,0 2,0 a 1,1 0 1,0 -2,0 M 1082.85 354.64 m -0.5, 0 a 0.5,0.5 0 1,0 1,0 a 0.5,0.5 0 1,0 -1,0  M1082.85 354.64 L1082.85 354.64 1070.85 354.64 M1076.85 360.64 L1076.85 360.64 1076.85 348.64" id="h213983728" class="r"></path><path d="M 325.89 613.6700000000001 m -1, 0 a 1,1 0 1,0 2,0 a 1,1 0 1,0 -2,0 M 325.89 613.6700000000001 m -0.5, 0 a 0.5,0.5 0 1,0 1,0 a 0.5,0.5 0 1,0 -1,0  M325.89 613.6700000000001 L325.89 613.6700000000001 337.89 613.6700000000001 M 325.89 619.6700000000001 m -1, 0 a 1,1 0 1,0 2,0 a 1,1 0 1,0 -2,0 M 325.89 619.6700000000001 m -0.5, 0 a 0.5,0.5 0 1,0 1,0 a 0.5,0.5 0 1,0 -1,0  M325.89 619.6700000000001 L325.89 619.6700000000001 332.89 613.6700000000001 325.89 607.6700000000001 M 325.89 607.6700000000001 m -1, 0 a 1,1 0 1,0 2,0 a 1,1 0 1,0 -2,0 M 325.89 607.6700000000001 m -0.5, 0 a 0.5,0.5 0 1,0 1,0 a 0.5,0.5 0 1,0 -1,0  M337.89 613.6700000000001 Q 373.2 613.6700000000001, 408.5 429.41 T 479.11 245.15 M 491.11 245.15 m -1, 0 a 1,1 0 1,0 2,0 a 1,1 0 1,0 -2,0 M 491.11 245.15 m -0.5, 0 a 0.5,0.5 0 1,0 1,0 a 0.5,0.5 0 1,0 -1,0  M491.11 245.15 L491.11 245.15 479.11 245.15 M 491.11 251.15 m -1, 0 a 1,1 0 1,0 2,0 a 1,1 0 1,0 -2,0 M 491.11 251.15 m -0.5, 0 a 0.5,0.5 0 1,0 1,0 a 0.5,0.5 0 1,0 -1,0  M491.11 251.15 L491.11 251.15 484.11 245.15 491.11 239.15 M 491.11 239.15 m -1, 0 a 1,1 0 1,0 2,0 a 1,1 0 1,0 -2,0 M 491.11 239.15 m -0.5, 0 a 0.5,0.5 0 1,0 1,0 a 0.5,0.5 0 1,0 -1,0 " id="h2503207622" class="r"></path><path d="M 1253.78 710 m -1, 0 a 1,1 0 1,0 2,0 a 1,1 0 1,0 -2,0 M 1253.78 710 m -0.5, 0 a 0.5,0.5 0 1,0 1,0 a 0.5,0.5 0 1,0 -1,0  M1253.78 710 L1253.78 710 1265.78 710 M1259.78 716 L1259.78 716 1259.78 704 M1265.78 710 C 1344.6599999999999 710, 1333.83 354.64, 1283.83 354.64 M 1271.83 354.64 m -1, 0 a 1,1 0 1,0 2,0 a 1,1 0 1,0 -2,0 M 1271.83 354.64 m -0.5, 0 a 0.5,0.5 0 1,0 1,0 a 0.5,0.5 0 1,0 -1,0  M1271.83 354.64 L1271.83 354.64 1283.83 354.64 M1277.83 360.64 L1277.83 360.64 1277.83 348.64" id="h2927138733" class="r"></path><path d="M 388.27 193.25 m -1, 0 a 1,1 0 1,0 2,0 a 1,1 0 1,0 -2,0 M 388.27 193.25 m -0.5, 0 a 0.5,0.5 0 1,0 1,0 a 0.5,0.5 0 1,0 -1,0  M388.27 193.25 L388.27 193.25 400.27 193.25 M 388.27 199.25 m -1, 0 a 1,1 0 1,0 2,0 a 1,1 0 1,0 -2,0 M 388.27 199.25 m -0.5, 0 a 0.5,0.5 0 1,0 1,0 a 0.5,0.5 0 1,0 -1,0  M388.27 199.25 L388.27 199.25 395.27 193.25 388.27 187.25 M 388.27 187.25 m -1, 0 a 1,1 0 1,0 2,0 a 1,1 0 1,0 -2,0 M 388.27 187.25 m -0.5, 0 a 0.5,0.5 0 1,0 1,0 a 0.5,0.5 0 1,0 -1,0  M400.27 193.25 Q 419.98 193.25, 439.69 219.2 T 479.11 245.15 M 491.11 245.15 m -1, 0 a 1,1 0 1,0 2,0 a 1,1 0 1,0 -2,0 M 491.11 245.15 m -0.5, 0 a 0.5,0.5 0 1,0 1,0 a 0.5,0.5 0 1,0 -1,0  M491.11 245.15 L491.11 245.15 479.11 245.15 M485.11 251.15 L485.11 251.15 485.11 239.15" id="h2992293355" class="r"></path><path d="M 254.44 409.61 m -1, 0 a 1,1 0 1,0 2,0 a 1,1 0 1,0 -2,0 M 254.44 409.61 m -0.5, 0 a 0.5,0.5 0 1,0 1,0 a 0.5,0.5 0 1,0 -1,0  M254.44 409.61 L254.44 409.61 242.44 409.61 M 254.44 415.61 m -1, 0 a 1,1 0 1,0 2,0 a 1,1 0 1,0 -2,0 M 254.44 415.61 m -0.5, 0 a 0.5,0.5 0 1,0 1,0 a 0.5,0.5 0 1,0 -1,0  M254.44 415.61 L254.44 415.61 247.44 409.61 254.44 403.61 M 254.44 403.61 m -1, 0 a 1,1 0 1,0 2,0 a 1,1 0 1,0 -2,0 M 254.44 403.61 m -0.5, 0 a 0.5,0.5 0 1,0 1,0 a 0.5,0.5 0 1,0 -1,0  M242.44 409.61 C 186.44 409.61, 188.69 168.25, 238.69 168.25 M 250.69 168.25 m -1, 0 a 1,1 0 1,0 2,0 a 1,1 0 1,0 -2,0 M 250.69 168.25 m -0.5, 0 a 0.5,0.5 0 1,0 1,0 a 0.5,0.5 0 1,0 -1,0  M250.69 168.25 L250.69 168.25 238.69 168.25 M244.69 174.25 L244.69 174.25 244.69 162.25" id="h641061386" class="r"></path></g><g class="hrs"></g><g class="ts"><svg width="188.98" height="325" x="1082.85" y="297.64" id="h3435355604" class="t"><rect height="40" width="188.98" class="th"></rect><text x="13" y="25" class="tht">auth_user</text><rect height="285" width="188.98" class="t-bg"></rect><text x="13" y="61" class="tf pk">id<tspan x="175.98" class="ty">integer</tspan></text><path d="M7,14A2,2 0 0,1 5,12A2,2 0 0,1 7,10A2,2 0 0,1 9,12A2,2 0 0,1 7,14M12.65,10C11.83,7.67 9.61,6 7, 6A6, 6 0 0, 0 1, 12A6, 6 0 0, 0 7, 18C9.61, 18 11.83, 16.33 12.65, 14H17V18H21V14H23V10H12.65Z" class="i pk" transform="translate(115.26370666503905, 48) scale(0.65)"></path><text x="13" y="86" class="tf">password<tspan x="175.98" class="ty">varchar(128)</tspan></text><text x="13" y="111" class="tf">last_login<tspan x="175.98" class="ty">datetime</tspan></text><text x="13" y="136" class="tf">is_superuser<tspan x="175.98" class="ty">bool</tspan></text><text x="13" y="161" class="tf">username<tspan x="175.98" class="ty">varchar(150)</tspan></text><path d="M22,18V22H18V19H15V16H12L9.74,13.74C9.19,13.91 8.61,14 8,14A6,6 0 0,1 2,8A6,6 0 0,1 8,2A6,6 0 0,1 14,8C14,8.61 13.91, 9.19 13.74, 9.74L22, 18M7, 5A2, 2 0 0, 0 5, 7A2, 2 0 0, 0 7, 9A2, 2 0 0, 0 9, 7A2, 2 0 0, 0 7, 5Z" class="i uq" transform="translate(89.77954528808593, 150.5) scale(0.5)"></path><text x="13" y="186" class="tf">first_name<tspan x="175.98" class="ty">varchar(30)</tspan></text><text x="13" y="211" class="tf">email<tspan x="175.98" class="ty">varchar(254)</tspan></text><text x="13" y="236" class="tf">is_staff<tspan x="175.98" class="ty">bool</tspan></text><text x="13" y="261" class="tf">is_active<tspan x="175.98" class="ty">bool</tspan></text><text x="13" y="286" class="tf">date_joined<tspan x="175.98" class="ty">datetime</tspan></text><text x="13" y="311" class="tf">last_name<tspan x="175.98" class="ty">varchar(150)</tspan></text></svg><svg width="157.39" height="100" x="814.12" y="83" id="h1469962919" class="t"><rect height="40" width="157.39" class="th"></rect><text x="13" y="25" class="tht">app_provided_users</text><rect height="60" width="157.39" class="t-bg"></rect><text x="13" y="61" class="tf fk">user<tspan x="144.39" class="ty">integer</tspan></text><text x="13" y="86" class="tf fk">record<tspan x="144.39" class="ty">integer</tspan></text></svg><svg width="134.16" height="100" x="826.56" y="231.45" id="h1747560114" class="t"><rect height="40" width="134.16" class="th"></rect><text x="13" y="25" class="tht">app_rated_users</text><rect height="60" width="134.16" class="t-bg"></rect><text x="13" y="61" class="tf fk">user<tspan x="121.16" class="ty">integer</tspan></text><text x="13" y="86" class="tf fk">record<tspan x="121.16" class="ty">integer</tspan></text></svg><svg width="126.97" height="175" x="837.09" y="508.97" id="h1911158802" class="t"><rect height="40" width="126.97" class="th"></rect><text x="13" y="25" class="tht">app_comments</text><rect height="135" width="126.97" class="t-bg"></rect><text x="13" y="61" class="tf pk">id<tspan x="113.97" class="ty">integer</tspan></text><path d="M7,14A2,2 0 0,1 5,12A2,2 0 0,1 7,10A2,2 0 0,1 9,12A2,2 0 0,1 7,14M12.65,10C11.83,7.67 9.61,6 7, 6A6, 6 0 0, 0 1, 12A6, 6 0 0, 0 7, 18C9.61, 18 11.83, 16.33 12.65, 14H17V18H21V14H23V10H12.65Z" class="i pk" transform="translate(53.25370666503906, 48) scale(0.65)"></path><text x="13" y="86" class="tf fk">author<tspan x="113.97" class="ty">integer</tspan></text><text x="13" y="111" class="tf">content<tspan x="113.97" class="ty">text</tspan></text><text x="13" y="136" class="tf fk">record<tspan x="113.97" class="ty">integer</tspan></text><text x="13" y="161" class="tf">date<tspan x="113.97" class="ty">date</tspan></text></svg><svg width="152.12" height="200" x="1103.55" y="75.44" id="h2720092501" class="t"><rect height="40" width="152.12" class="th"></rect><text x="13" y="25" class="tht">app_profile</text><rect height="160" width="152.12" class="t-bg"></rect><text x="13" y="61" class="tf pk">user<tspan x="139.12" class="ty">integer</tspan></text><path d="M7,14A2,2 0 0,1 5,12A2,2 0 0,1 7,10A2,2 0 0,1 9,12A2,2 0 0,1 7,14M12.65,10C11.83,7.67 9.61,6 7, 6A6, 6 0 0, 0 1, 12A6, 6 0 0, 0 7, 18C9.61, 18 11.83, 16.33 12.65, 14H17V18H21V14H23V10H12.65Z" class="i pk" transform="translate(78.40370666503907, 48) scale(0.65)"></path><text x="13" y="86" class="tf">avatar<tspan x="139.12" class="ty">text</tspan></text><text x="13" y="111" class="tf">balance<tspan x="139.12" class="ty">integer</tspan></text><text x="13" y="136" class="tf">is_premium<tspan x="139.12" class="ty">bool</tspan></text><text x="13" y="161" class="tf">has_2stepverif<tspan x="139.12" class="ty">bool</tspan></text><text x="13" y="186" class="tf">bio<tspan x="139.12" class="ty">text</tspan></text></svg><svg width="179.39" height="450" x="491.11" y="188.15" id="h2473939916" class="t"><rect height="40" width="179.39" class="th"></rect><text x="13" y="25" class="tht">app_records</text><rect height="410" width="179.39" class="t-bg"></rect><text x="13" y="61" class="tf pk">id<tspan x="166.39" class="ty">integer</tspan></text><path d="M7,14A2,2 0 0,1 5,12A2,2 0 0,1 7,10A2,2 0 0,1 9,12A2,2 0 0,1 7,14M12.65,10C11.83,7.67 9.61,6 7, 6A6, 6 0 0, 0 1, 12A6, 6 0 0, 0 7, 18C9.61, 18 11.83, 16.33 12.65, 14H17V18H21V14H23V10H12.65Z" class="i pk" transform="translate(105.67370666503905, 48) scale(0.65)"></path><text x="13" y="86" class="tf">title<tspan x="166.39" class="ty">text</tspan></text><text x="13" y="111" class="tf">content<tspan x="166.39" class="ty">text</tspan></text><text x="13" y="136" class="tf">description<tspan x="166.39" class="ty">varchar(300)</tspan></text><text x="13" y="161" class="tf">main_pic<tspan x="166.39" class="ty">file</tspan></text><text x="13" y="186" class="tf">pre_video<tspan x="166.39" class="ty">file</tspan></text><text x="13" y="211" class="tf fk">author<tspan x="166.39" class="ty">integer</tspan></text><text x="13" y="236" class="tf">date<tspan x="166.39" class="ty">date</tspan></text><text x="13" y="261" class="tf">rating<tspan x="166.39" class="ty">real</tspan></text><text x="13" y="286" class="tf">best_rating<tspan x="166.39" class="ty">integer</tspan></text><text x="13" y="311" class="tf">rating_count<tspan x="166.39" class="ty">integer</tspan></text><text x="13" y="336" class="tf">worst_rating<tspan x="166.39" class="ty">integer</tspan></text><text x="13" y="361" class="tf">rating_sum<tspan x="166.39" class="ty">integer</tspan></text><text x="13" y="386" class="tf">includes<tspan x="166.39" class="ty">text</tspan></text><text x="13" y="411" class="tf">price<tspan x="166.39" class="ty">integer</tspan></text><text x="13" y="436" class="tf">sales<tspan x="166.39" class="ty">integer</tspan></text></svg><svg width="146.78" height="100" x="1107" y="653" id="h1886795398" class="t"><rect height="40" width="146.78" class="th"></rect><text x="13" y="25" class="tht">app_activation</text><rect height="60" width="146.78" class="t-bg"></rect><text x="13" y="61" class="tf pk">user<tspan x="133.78" class="ty">integer</tspan></text><path d="M7,14A2,2 0 0,1 5,12A2,2 0 0,1 7,10A2,2 0 0,1 9,12A2,2 0 0,1 7,14M12.65,10C11.83,7.67 9.61,6 7, 6A6, 6 0 0, 0 1, 12A6, 6 0 0, 0 7, 18C9.61, 18 11.83, 16.33 12.65, 14H17V18H21V14H23V10H12.65Z" class="i pk" transform="translate(73.06370666503906, 48) scale(0.65)"></path><text x="13" y="86" class="tf">activation_key<tspan x="133.78" class="ty">text</tspan></text></svg><svg width="137.58" height="150" x="250.69" y="111.25" id="h1416180774" class="t"><rect height="40" width="137.58" class="th"></rect><text x="13" y="25" class="tht">app_headers</text><rect height="110" width="137.58" class="t-bg"></rect><text x="13" y="61" class="tf pk">id<tspan x="124.58000000000001" class="ty">integer</tspan></text><path d="M7,14A2,2 0 0,1 5,12A2,2 0 0,1 7,10A2,2 0 0,1 9,12A2,2 0 0,1 7,14M12.65,10C11.83,7.67 9.61,6 7, 6A6, 6 0 0, 0 1, 12A6, 6 0 0, 0 7, 18C9.61, 18 11.83, 16.33 12.65, 14H17V18H21V14H23V10H12.65Z" class="i pk" transform="translate(63.863706665039075, 48) scale(0.65)"></path><text x="13" y="86" class="tf fk">record<tspan x="124.58000000000001" class="ty">integer</tspan></text><text x="13" y="111" class="tf">title<tspan x="124.58000000000001" class="ty">varchar(128)</tspan></text><text x="13" y="136" class="tf">_order<tspan x="124.58000000000001" class="ty">integer</tspan></text></svg><svg width="123.12" height="150" x="254.44" y="327.61" id="h3046117374" class="t"><rect height="40" width="123.12" class="th"></rect><text x="13" y="25" class="tht">app_files</text><rect height="110" width="123.12" class="t-bg"></rect><text x="13" y="61" class="tf pk">id<tspan x="110.12" class="ty">integer</tspan></text><path d="M7,14A2,2 0 0,1 5,12A2,2 0 0,1 7,10A2,2 0 0,1 9,12A2,2 0 0,1 7,14M12.65,10C11.83,7.67 9.61,6 7, 6A6, 6 0 0, 0 1, 12A6, 6 0 0, 0 7, 18C9.61, 18 11.83, 16.33 12.65, 14H17V18H21V14H23V10H12.65Z" class="i pk" transform="translate(49.40370666503907, 48) scale(0.65)"></path><text x="13" y="86" class="tf fk">header<tspan x="110.12" class="ty">int</tspan></text><text x="13" y="111" class="tf">src<tspan x="110.12" class="ty">file</tspan></text><text x="13" y="136" class="tf">_order<tspan x="110.12" class="ty">integer</tspan></text></svg><svg width="127.78" height="100" x="198.11" y="556.6700000000001" id="h1268427634" class="t"><rect height="40" width="127.78" class="th"></rect><text x="13" y="25" class="tht">app_tags</text><rect height="60" width="127.78" class="t-bg"></rect><text x="13" y="61" class="tf pk">id<tspan x="114.78" class="ty">integer</tspan></text><path d="M7,14A2,2 0 0,1 5,12A2,2 0 0,1 7,10A2,2 0 0,1 9,12A2,2 0 0,1 7,14M12.65,10C11.83,7.67 9.61,6 7, 6A6, 6 0 0, 0 1, 12A6, 6 0 0, 0 7, 18C9.61, 18 11.83, 16.33 12.65, 14H17V18H21V14H23V10H12.65Z" class="i pk" transform="translate(54.063706665039064, 48) scale(0.65)"></path><text x="13" y="86" class="tf">tag<tspan x="114.78" class="ty">varchar(64)</tspan></text></svg></g></g><text class="qdbd-link" x="10" y="20">www.quickdatabasediagrams.com</text></svg>