<svg class="diagram-root" style="background: #f5f6f6" xmlns="http://www.w3.org/2000/svg" xmlns:xlink="http://www.w3.org/1999/xlink"><style>.diagram-root { font-family: "Helvetica Neue", sans-serif; font-size: 12px; } .t { overflow: visible; } .t-bg { y: 40; fill: #fff;   } .th { fill: #005aa0;   } .tht { fill: #fff; font-size: 14px;  } .tf { fill: #323c46; overflow: visible; } .tf.pk { fill: #005aa0; font-weight: bold; } .tf.fk { font-weight: bold; } .ty { fill: #adb1b5; font-weight: normal; text-anchor: end; } .r { fill: transparent; stroke: #c3c3c3; stroke-width: 1; } .l { stroke: 1; } .i { fill: #c2c7ce; stroke: #c2c7ce; } .i.ix { fill: #afb3b6; stroke: #000; } .fa { fill: transparent; overflow: visible; } .fa .bg.hover { fill: #f7f7f7; } .c { cy: 12; r: 4; stroke: #d2d2dc; fill: #d2d2dc; } .hr { fill: transparent; stroke: #323c46; stroke-opacity: 0.035; stroke-width: 13; } .dc { stroke: #fa5a3c; fill: #fa5a3c; } .x { stroke: white; stroke-width: 1; } .hl .th { fill: #1b9bff; } .hl .tht {  } .fhl .bg { fill: #e7f4ff; } .fhls .bg {  } .r.hl { stroke: #1b9bff; } .dim { opacity: 0.25; }</style><g class="drawing-wrapper" transform="translate(-39.11888888888883, -23.32777777777777) scale(1,1)"><g class="rs"><path d="M 1125.8 723.66 m -1, 0 a 1,1 0 1,0 2,0 a 1,1 0 1,0 -2,0 M 1125.8 723.66 m -0.5, 0 a 0.5,0.5 0 1,0 1,0 a 0.5,0.5 0 1,0 -1,0  M1125.8 723.66 L1125.8 723.66 1137.8 723.66 M 1125.8 729.66 m -1, 0 a 1,1 0 1,0 2,0 a 1,1 0 1,0 -2,0 M 1125.8 729.66 m -0.5, 0 a 0.5,0.5 0 1,0 1,0 a 0.5,0.5 0 1,0 -1,0  M1125.8 729.66 L1125.8 729.66 1132.8 723.66 1125.8 717.66 M 1125.8 717.66 m -1, 0 a 1,1 0 1,0 2,0 a 1,1 0 1,0 -2,0 M 1125.8 717.66 m -0.5, 0 a 0.5,0.5 0 1,0 1,0 a 0.5,0.5 0 1,0 -1,0  M1137.8 723.66 C 1532.44 723.66, 1403.2 374.78, 1353.2 374.78 M 1341.2 374.78 m -1, 0 a 1,1 0 1,0 2,0 a 1,1 0 1,0 -2,0 M 1341.2 374.78 m -0.5, 0 a 0.5,0.5 0 1,0 1,0 a 0.5,0.5 0 1,0 -1,0  M1341.2 374.78 L1341.2 374.78 1353.2 374.78 M1347.2 380.78 L1347.2 380.78 1347.2 368.78" id="h1545326527" class="r"></path><path d="M 398.33 398.11 m -1, 0 a 1,1 0 1,0 2,0 a 1,1 0 1,0 -2,0 M 398.33 398.11 m -0.5, 0 a 0.5,0.5 0 1,0 1,0 a 0.5,0.5 0 1,0 -1,0  M398.33 398.11 L398.33 398.11 386.33 398.11 M 398.33 404.11 m -1, 0 a 1,1 0 1,0 2,0 a 1,1 0 1,0 -2,0 M 398.33 404.11 m -0.5, 0 a 0.5,0.5 0 1,0 1,0 a 0.5,0.5 0 1,0 -1,0  M398.33 404.11 L398.33 404.11 391.33 398.11 398.33 392.11 M 398.33 392.11 m -1, 0 a 1,1 0 1,0 2,0 a 1,1 0 1,0 -2,0 M 398.33 392.11 m -0.5, 0 a 0.5,0.5 0 1,0 1,0 a 0.5,0.5 0 1,0 -1,0  M386.33 398.11 Q 343.98 398.11, 301.62 525.33 T 216.9 652.55 M 204.9 652.55 m -1, 0 a 1,1 0 1,0 2,0 a 1,1 0 1,0 -2,0 M 204.9 652.55 m -0.5, 0 a 0.5,0.5 0 1,0 1,0 a 0.5,0.5 0 1,0 -1,0  M204.9 652.55 L204.9 652.55 216.9 652.55 M 204.9 658.55 m -1, 0 a 1,1 0 1,0 2,0 a 1,1 0 1,0 -2,0 M 204.9 658.55 m -0.5, 0 a 0.5,0.5 0 1,0 1,0 a 0.5,0.5 0 1,0 -1,0  M204.9 658.55 L204.9 658.55 211.9 652.55 204.9 646.55 M 204.9 646.55 m -1, 0 a 1,1 0 1,0 2,0 a 1,1 0 1,0 -2,0 M 204.9 646.55 m -0.5, 0 a 0.5,0.5 0 1,0 1,0 a 0.5,0.5 0 1,0 -1,0 " id="h771996319" class="r"></path><path d="M 577.72 473.11 m -1, 0 a 1,1 0 1,0 2,0 a 1,1 0 1,0 -2,0 M 577.72 473.11 m -0.5, 0 a 0.5,0.5 0 1,0 1,0 a 0.5,0.5 0 1,0 -1,0  M577.72 473.11 L577.72 473.11 589.72 473.11 M 577.72 479.11 m -1, 0 a 1,1 0 1,0 2,0 a 1,1 0 1,0 -2,0 M 577.72 479.11 m -0.5, 0 a 0.5,0.5 0 1,0 1,0 a 0.5,0.5 0 1,0 -1,0  M577.72 479.11 L577.72 479.11 584.72 473.11 577.72 467.11 M 577.72 467.11 m -1, 0 a 1,1 0 1,0 2,0 a 1,1 0 1,0 -2,0 M 577.72 467.11 m -0.5, 0 a 0.5,0.5 0 1,0 1,0 a 0.5,0.5 0 1,0 -1,0  M589.72 473.11 Q 727.35 473.11, 864.97 423.95 T 1140.22 374.78 M 1152.22 374.78 m -1, 0 a 1,1 0 1,0 2,0 a 1,1 0 1,0 -2,0 M 1152.22 374.78 m -0.5, 0 a 0.5,0.5 0 1,0 1,0 a 0.5,0.5 0 1,0 -1,0  M1152.22 374.78 L1152.22 374.78 1140.22 374.78 M1146.22 380.78 L1146.22 380.78 1146.22 368.78" id="h213983728" class="r"></path><path d="M 253.13 468.67 m -1, 0 a 1,1 0 1,0 2,0 a 1,1 0 1,0 -2,0 M 253.13 468.67 m -0.5, 0 a 0.5,0.5 0 1,0 1,0 a 0.5,0.5 0 1,0 -1,0  M253.13 468.67 L253.13 468.67 265.13 468.67 M 253.13 474.67 m -1, 0 a 1,1 0 1,0 2,0 a 1,1 0 1,0 -2,0 M 253.13 474.67 m -0.5, 0 a 0.5,0.5 0 1,0 1,0 a 0.5,0.5 0 1,0 -1,0  M253.13 474.67 L253.13 474.67 260.13 468.67 253.13 462.67 M 253.13 462.67 m -1, 0 a 1,1 0 1,0 2,0 a 1,1 0 1,0 -2,0 M 253.13 462.67 m -0.5, 0 a 0.5,0.5 0 1,0 1,0 a 0.5,0.5 0 1,0 -1,0  M265.13 468.67 Q 295.43 468.67, 325.73 383.39 T 386.33 298.11 M 398.33 298.11 m -1, 0 a 1,1 0 1,0 2,0 a 1,1 0 1,0 -2,0 M 398.33 298.11 m -0.5, 0 a 0.5,0.5 0 1,0 1,0 a 0.5,0.5 0 1,0 -1,0  M398.33 298.11 L398.33 298.11 386.33 298.11 M392.33 304.11 L392.33 304.11 392.33 292.11" id="h2992293355" class="r"></path><path d="M 119.44 268.66999999999996 m -1, 0 a 1,1 0 1,0 2,0 a 1,1 0 1,0 -2,0 M 119.44 268.66999999999996 m -0.5, 0 a 0.5,0.5 0 1,0 1,0 a 0.5,0.5 0 1,0 -1,0  M119.44 268.66999999999996 L119.44 268.66999999999996 107.44 268.66999999999996 M 119.44 274.66999999999996 m -1, 0 a 1,1 0 1,0 2,0 a 1,1 0 1,0 -2,0 M 119.44 274.66999999999996 m -0.5, 0 a 0.5,0.5 0 1,0 1,0 a 0.5,0.5 0 1,0 -1,0  M119.44 274.66999999999996 L119.44 274.66999999999996 112.44 268.66999999999996 119.44 262.66999999999996 M 119.44 262.66999999999996 m -1, 0 a 1,1 0 1,0 2,0 a 1,1 0 1,0 -2,0 M 119.44 262.66999999999996 m -0.5, 0 a 0.5,0.5 0 1,0 1,0 a 0.5,0.5 0 1,0 -1,0  M107.44 268.66999999999996 C 51.215999999999994 268.66999999999996, 53.55 443.67, 103.55 443.67 M 115.55 443.67 m -1, 0 a 1,1 0 1,0 2,0 a 1,1 0 1,0 -2,0 M 115.55 443.67 m -0.5, 0 a 0.5,0.5 0 1,0 1,0 a 0.5,0.5 0 1,0 -1,0  M115.55 443.67 L115.55 443.67 103.55 443.67 M109.55 449.67 L109.55 449.67 109.55 437.67" id="h641061386" class="r"></path><path d="M 874.73 632 m -1, 0 a 1,1 0 1,0 2,0 a 1,1 0 1,0 -2,0 M 874.73 632 m -0.5, 0 a 0.5,0.5 0 1,0 1,0 a 0.5,0.5 0 1,0 -1,0  M874.73 632 L874.73 632 886.73 632 M 874.73 638 m -1, 0 a 1,1 0 1,0 2,0 a 1,1 0 1,0 -2,0 M 874.73 638 m -0.5, 0 a 0.5,0.5 0 1,0 1,0 a 0.5,0.5 0 1,0 -1,0  M874.73 638 L874.73 638 881.73 632 874.73 626 M 874.73 626 m -1, 0 a 1,1 0 1,0 2,0 a 1,1 0 1,0 -2,0 M 874.73 626 m -0.5, 0 a 0.5,0.5 0 1,0 1,0 a 0.5,0.5 0 1,0 -1,0  M886.73 632 Q 950.11 632, 1013.48 503.39 T 1140.22 374.78 M 1152.22 374.78 m -1, 0 a 1,1 0 1,0 2,0 a 1,1 0 1,0 -2,0 M 1152.22 374.78 m -0.5, 0 a 0.5,0.5 0 1,0 1,0 a 0.5,0.5 0 1,0 -1,0  M1152.22 374.78 L1152.22 374.78 1140.22 374.78 M1146.22 380.78 L1146.22 380.78 1146.22 368.78" id="h1489946974" class="r"></path><path d="M 747.76 707 m -1, 0 a 1,1 0 1,0 2,0 a 1,1 0 1,0 -2,0 M 747.76 707 m -0.5, 0 a 0.5,0.5 0 1,0 1,0 a 0.5,0.5 0 1,0 -1,0  M747.76 707 L747.76 707 735.76 707 M 747.76 713 m -1, 0 a 1,1 0 1,0 2,0 a 1,1 0 1,0 -2,0 M 747.76 713 m -0.5, 0 a 0.5,0.5 0 1,0 1,0 a 0.5,0.5 0 1,0 -1,0  M747.76 713 L747.76 713 740.76 707 747.76 701 M 747.76 701 m -1, 0 a 1,1 0 1,0 2,0 a 1,1 0 1,0 -2,0 M 747.76 701 m -0.5, 0 a 0.5,0.5 0 1,0 1,0 a 0.5,0.5 0 1,0 -1,0  M735.76 707 Q 699.25 707, 662.74 502.56 T 589.72 298.11 M 577.72 298.11 m -1, 0 a 1,1 0 1,0 2,0 a 1,1 0 1,0 -2,0 M 577.72 298.11 m -0.5, 0 a 0.5,0.5 0 1,0 1,0 a 0.5,0.5 0 1,0 -1,0  M577.72 298.11 L577.72 298.11 589.72 298.11 M583.72 304.11 L583.72 304.11 583.72 292.11" id="h1445157379" class="r"></path><path d="M 1290.19 110.33 m -1, 0 a 1,1 0 1,0 2,0 a 1,1 0 1,0 -2,0 M 1290.19 110.33 m -0.5, 0 a 0.5,0.5 0 1,0 1,0 a 0.5,0.5 0 1,0 -1,0  M1290.19 110.33 L1290.19 110.33 1302.19 110.33 M1296.19 116.33 L1296.19 116.33 1296.19 104.33 M1302.19 110.33 C 1433.806 110.33, 1403.2 374.78, 1353.2 374.78 M 1341.2 374.78 m -1, 0 a 1,1 0 1,0 2,0 a 1,1 0 1,0 -2,0 M 1341.2 374.78 m -0.5, 0 a 0.5,0.5 0 1,0 1,0 a 0.5,0.5 0 1,0 -1,0  M1341.2 374.78 L1341.2 374.78 1353.2 374.78 M1347.2 380.78 L1347.2 380.78 1347.2 368.78" id="h1137132637" class="r"></path><path d="M 885.17 157.01 m -1, 0 a 1,1 0 1,0 2,0 a 1,1 0 1,0 -2,0 M 885.17 157.01 m -0.5, 0 a 0.5,0.5 0 1,0 1,0 a 0.5,0.5 0 1,0 -1,0  M885.17 157.01 L885.17 157.01 897.17 157.01 M 885.17 163.01 m -1, 0 a 1,1 0 1,0 2,0 a 1,1 0 1,0 -2,0 M 885.17 163.01 m -0.5, 0 a 0.5,0.5 0 1,0 1,0 a 0.5,0.5 0 1,0 -1,0  M885.17 163.01 L885.17 163.01 892.17 157.01 885.17 151.01 M 885.17 151.01 m -1, 0 a 1,1 0 1,0 2,0 a 1,1 0 1,0 -2,0 M 885.17 151.01 m -0.5, 0 a 0.5,0.5 0 1,0 1,0 a 0.5,0.5 0 1,0 -1,0  M897.17 157.01 Q 957.94 157.01, 1018.7 265.9 T 1140.22 374.78 M 1152.22 374.78 m -1, 0 a 1,1 0 1,0 2,0 a 1,1 0 1,0 -2,0 M 1152.22 374.78 m -0.5, 0 a 0.5,0.5 0 1,0 1,0 a 0.5,0.5 0 1,0 -1,0  M1152.22 374.78 L1152.22 374.78 1140.22 374.78 M1146.22 380.78 L1146.22 380.78 1146.22 368.78" id="h3100570010" class="r"></path><path d="M 727.78 182.01 m -1, 0 a 1,1 0 1,0 2,0 a 1,1 0 1,0 -2,0 M 727.78 182.01 m -0.5, 0 a 0.5,0.5 0 1,0 1,0 a 0.5,0.5 0 1,0 -1,0  M727.78 182.01 L727.78 182.01 715.78 182.01 M 727.78 188.01 m -1, 0 a 1,1 0 1,0 2,0 a 1,1 0 1,0 -2,0 M 727.78 188.01 m -0.5, 0 a 0.5,0.5 0 1,0 1,0 a 0.5,0.5 0 1,0 -1,0  M727.78 188.01 L727.78 188.01 720.78 182.01 727.78 176.01 M 727.78 176.01 m -1, 0 a 1,1 0 1,0 2,0 a 1,1 0 1,0 -2,0 M 727.78 176.01 m -0.5, 0 a 0.5,0.5 0 1,0 1,0 a 0.5,0.5 0 1,0 -1,0  M715.78 182.01 Q 684.27 182.01, 652.75 240.06 T 589.72 298.11 M 577.72 298.11 m -1, 0 a 1,1 0 1,0 2,0 a 1,1 0 1,0 -2,0 M 577.72 298.11 m -0.5, 0 a 0.5,0.5 0 1,0 1,0 a 0.5,0.5 0 1,0 -1,0  M577.72 298.11 L577.72 298.11 589.72 298.11 M583.72 304.11 L583.72 304.11 583.72 292.11" id="h2753429567" class="r"></path><path d="M 869.17 330.33 m -1, 0 a 1,1 0 1,0 2,0 a 1,1 0 1,0 -2,0 M 869.17 330.33 m -0.5, 0 a 0.5,0.5 0 1,0 1,0 a 0.5,0.5 0 1,0 -1,0  M869.17 330.33 L869.17 330.33 881.17 330.33 M 869.17 336.33 m -1, 0 a 1,1 0 1,0 2,0 a 1,1 0 1,0 -2,0 M 869.17 336.33 m -0.5, 0 a 0.5,0.5 0 1,0 1,0 a 0.5,0.5 0 1,0 -1,0  M869.17 336.33 L869.17 336.33 876.17 330.33 869.17 324.33 M 869.17 324.33 m -1, 0 a 1,1 0 1,0 2,0 a 1,1 0 1,0 -2,0 M 869.17 324.33 m -0.5, 0 a 0.5,0.5 0 1,0 1,0 a 0.5,0.5 0 1,0 -1,0  M881.17 330.33 Q 945.94 330.33, 1010.7 352.55 T 1140.22 374.78 M 1152.22 374.78 m -1, 0 a 1,1 0 1,0 2,0 a 1,1 0 1,0 -2,0 M 1152.22 374.78 m -0.5, 0 a 0.5,0.5 0 1,0 1,0 a 0.5,0.5 0 1,0 -1,0  M1152.22 374.78 L1152.22 374.78 1140.22 374.78 M1146.22 380.78 L1146.22 380.78 1146.22 368.78" id="h136505921" class="r"></path><path d="M 735.01 355.33 m -1, 0 a 1,1 0 1,0 2,0 a 1,1 0 1,0 -2,0 M 735.01 355.33 m -0.5, 0 a 0.5,0.5 0 1,0 1,0 a 0.5,0.5 0 1,0 -1,0  M735.01 355.33 L735.01 355.33 723.01 355.33 M 735.01 361.33 m -1, 0 a 1,1 0 1,0 2,0 a 1,1 0 1,0 -2,0 M 735.01 361.33 m -0.5, 0 a 0.5,0.5 0 1,0 1,0 a 0.5,0.5 0 1,0 -1,0  M735.01 361.33 L735.01 361.33 728.01 355.33 735.01 349.33 M 735.01 349.33 m -1, 0 a 1,1 0 1,0 2,0 a 1,1 0 1,0 -2,0 M 735.01 349.33 m -0.5, 0 a 0.5,0.5 0 1,0 1,0 a 0.5,0.5 0 1,0 -1,0  M723.01 355.33 Q 689.69 355.33, 656.37 326.72 T 589.72 298.11 M 577.72 298.11 m -1, 0 a 1,1 0 1,0 2,0 a 1,1 0 1,0 -2,0 M 577.72 298.11 m -0.5, 0 a 0.5,0.5 0 1,0 1,0 a 0.5,0.5 0 1,0 -1,0  M577.72 298.11 L577.72 298.11 589.72 298.11 M583.72 304.11 L583.72 304.11 583.72 292.11" id="h4055908460" class="r"></path></g><g class="hrs"></g><g class="ts"><svg width="188.98" height="325" x="1152.22" y="317.78" id="h3435355604" class="t"><rect height="40" width="188.98" class="th"></rect><text x="13" y="25" class="tht">auth_user</text><rect height="285" width="188.98" class="t-bg"></rect><text x="13" y="61" class="tf pk">id<tspan x="175.98" class="ty">integer</tspan></text><path d="M7,14A2,2 0 0,1 5,12A2,2 0 0,1 7,10A2,2 0 0,1 9,12A2,2 0 0,1 7,14M12.65,10C11.83,7.67 9.61,6 7, 6A6, 6 0 0, 0 1, 12A6, 6 0 0, 0 7, 18C9.61, 18 11.83, 16.33 12.65, 14H17V18H21V14H23V10H12.65Z" class="i pk" transform="translate(115.26370666503905, 48) scale(0.65)"></path><text x="13" y="86" class="tf">password<tspan x="175.98" class="ty">varchar(128)</tspan></text><text x="13" y="111" class="tf">last_login<tspan x="175.98" class="ty">datetime</tspan></text><text x="13" y="136" class="tf">is_superuser<tspan x="175.98" class="ty">bool</tspan></text><text x="13" y="161" class="tf">username<tspan x="175.98" class="ty">varchar(150)</tspan></text><path d="M22,18V22H18V19H15V16H12L9.74,13.74C9.19,13.91 8.61,14 8,14A6,6 0 0,1 2,8A6,6 0 0,1 8,2A6,6 0 0,1 14,8C14,8.61 13.91, 9.19 13.74, 9.74L22, 18M7, 5A2, 2 0 0, 0 5, 7A2, 2 0 0, 0 7, 9A2, 2 0 0, 0 9, 7A2, 2 0 0, 0 7, 5Z" class="i uq" transform="translate(89.77954528808593, 150.5) scale(0.5)"></path><text x="13" y="186" class="tf">first_name<tspan x="175.98" class="ty">varchar(30)</tspan></text><text x="13" y="211" class="tf">email<tspan x="175.98" class="ty">varchar(254)</tspan></text><text x="13" y="236" class="tf">is_staff<tspan x="175.98" class="ty">bool</tspan></text><text x="13" y="261" class="tf">is_active<tspan x="175.98" class="ty">bool</tspan></text><text x="13" y="286" class="tf">date_joined<tspan x="175.98" class="ty">datetime</tspan></text><text x="13" y="311" class="tf">last_name<tspan x="175.98" class="ty">varchar(150)</tspan></text></svg><svg width="205.24" height="225" x="920.56" y="666.66" id="h4001464005" class="t"><rect height="40" width="205.24" class="th"></rect><text x="13" y="25" class="tht">app_activation_keys</text><rect height="185" width="205.24" class="t-bg"></rect><text x="13" y="61" class="tf fk">user<tspan x="192.24" class="ty">integer</tspan></text><text x="13" y="86" class="tf">activation_key<tspan x="192.24" class="ty">text</tspan></text><path d="M22,18V22H18V19H15V16H12L9.74,13.74C9.19,13.91 8.61,14 8,14A6,6 0 0,1 2,8A6,6 0 0,1 8,2A6,6 0 0,1 14,8C14,8.61 13.91, 9.19 13.74, 9.74L22, 18M7, 5A2, 2 0 0, 0 5, 7A2, 2 0 0, 0 7, 9A2, 2 0 0, 0 9, 7A2, 2 0 0, 0 7, 5Z" class="i uq" transform="translate(154.69985412597657, 75.5) scale(0.5)"></path><text x="13" y="111" class="tf">is_2step_verification<tspan x="192.24" class="ty">boolean</tspan></text><text x="13" y="136" class="tf">is_email_change<tspan x="192.24" class="ty">boolean</tspan></text><text x="13" y="161" class="tf">is_registration<tspan x="192.24" class="ty">boolean</tspan></text><text x="13" y="186" class="tf">is_remember<tspan x="192.24" class="ty">boolean</tspan></text><text x="13" y="211" class="tf">new_email<tspan x="192.24" class="ty">varchar(254)</tspan></text></svg><svg width="143.78" height="100" x="61.12" y="595.55" id="h1268427634" class="t"><rect height="40" width="143.78" class="th"></rect><text x="13" y="25" class="tht">app_tags</text><rect height="60" width="143.78" class="t-bg"></rect><text x="13" y="61" class="tf pk">id<tspan x="130.78" class="ty">integer</tspan></text><path d="M7,14A2,2 0 0,1 5,12A2,2 0 0,1 7,10A2,2 0 0,1 9,12A2,2 0 0,1 7,14M12.65,10C11.83,7.67 9.61,6 7, 6A6, 6 0 0, 0 1, 12A6, 6 0 0, 0 7, 18C9.61, 18 11.83, 16.33 12.65, 14H17V18H21V14H23V10H12.65Z" class="i pk" transform="translate(70.06370666503906, 48) scale(0.65)"></path><text x="13" y="86" class="tf">tag<tspan x="130.78" class="ty">varchar(32)</tspan></text><path d="M22,18V22H18V19H15V16H12L9.74,13.74C9.19,13.91 8.61,14 8,14A6,6 0 0,1 2,8A6,6 0 0,1 8,2A6,6 0 0,1 14,8C14,8.61 13.91, 9.19 13.74, 9.74L22, 18M7, 5A2, 2 0 0, 0 5, 7A2, 2 0 0, 0 7, 9A2, 2 0 0, 0 9, 7A2, 2 0 0, 0 7, 5Z" class="i uq" transform="translate(51.443589477539064, 75.5) scale(0.5)"></path></svg><svg width="179.39" height="450" x="398.33" y="241.11" id="h2473939916" class="t"><rect height="40" width="179.39" class="th"></rect><text x="13" y="25" class="tht">app_records</text><rect height="410" width="179.39" class="t-bg"></rect><text x="13" y="61" class="tf pk">id<tspan x="166.39" class="ty">integer</tspan></text><path d="M7,14A2,2 0 0,1 5,12A2,2 0 0,1 7,10A2,2 0 0,1 9,12A2,2 0 0,1 7,14M12.65,10C11.83,7.67 9.61,6 7, 6A6, 6 0 0, 0 1, 12A6, 6 0 0, 0 7, 18C9.61, 18 11.83, 16.33 12.65, 14H17V18H21V14H23V10H12.65Z" class="i pk" transform="translate(105.67370666503905, 48) scale(0.65)"></path><text x="13" y="86" class="tf">title<tspan x="166.39" class="ty">varchar(128)</tspan></text><text x="13" y="111" class="tf">content<tspan x="166.39" class="ty">text</tspan></text><text x="13" y="136" class="tf">description<tspan x="166.39" class="ty">varchar(256)</tspan></text><text x="13" y="161" class="tf fk">tags<tspan x="166.39" class="ty">integer</tspan></text><text x="13" y="186" class="tf">main_pic<tspan x="166.39" class="ty">file</tspan></text><text x="13" y="211" class="tf">pre_video<tspan x="166.39" class="ty">file</tspan></text><text x="13" y="236" class="tf fk">author<tspan x="166.39" class="ty">integer</tspan></text><text x="13" y="261" class="tf">date<tspan x="166.39" class="ty">datetime</tspan></text><text x="13" y="286" class="tf">rating<tspan x="166.39" class="ty">float</tspan></text><text x="13" y="311" class="tf">best_rating<tspan x="166.39" class="ty">integer</tspan></text><text x="13" y="336" class="tf">rating_count<tspan x="166.39" class="ty">integer</tspan></text><text x="13" y="361" class="tf">worst_rating<tspan x="166.39" class="ty">integer</tspan></text><text x="13" y="386" class="tf">includes<tspan x="166.39" class="ty">text</tspan></text><text x="13" y="411" class="tf">price<tspan x="166.39" class="ty">integer</tspan></text><text x="13" y="436" class="tf">sales<tspan x="166.39" class="ty">integer</tspan></text></svg><svg width="137.58" height="150" x="115.55" y="386.67" id="h1416180774" class="t"><rect height="40" width="137.58" class="th"></rect><text x="13" y="25" class="tht">app_headers</text><rect height="110" width="137.58" class="t-bg"></rect><text x="13" y="61" class="tf pk">id<tspan x="124.58000000000001" class="ty">integer</tspan></text><path d="M7,14A2,2 0 0,1 5,12A2,2 0 0,1 7,10A2,2 0 0,1 9,12A2,2 0 0,1 7,14M12.65,10C11.83,7.67 9.61,6 7, 6A6, 6 0 0, 0 1, 12A6, 6 0 0, 0 7, 18C9.61, 18 11.83, 16.33 12.65, 14H17V18H21V14H23V10H12.65Z" class="i pk" transform="translate(63.863706665039075, 48) scale(0.65)"></path><text x="13" y="86" class="tf fk">record<tspan x="124.58000000000001" class="ty">integer</tspan></text><text x="13" y="111" class="tf">title<tspan x="124.58000000000001" class="ty">varchar(128)</tspan></text><text x="13" y="136" class="tf">_order<tspan x="124.58000000000001" class="ty">integer</tspan></text></svg><svg width="126.74" height="150" x="119.44" y="186.67" id="h3046117374" class="t"><rect height="40" width="126.74" class="th"></rect><text x="13" y="25" class="tht">app_files</text><rect height="110" width="126.74" class="t-bg"></rect><text x="13" y="61" class="tf pk">id<tspan x="113.74" class="ty">integer</tspan></text><path d="M7,14A2,2 0 0,1 5,12A2,2 0 0,1 7,10A2,2 0 0,1 9,12A2,2 0 0,1 7,14M12.65,10C11.83,7.67 9.61,6 7, 6A6, 6 0 0, 0 1, 12A6, 6 0 0, 0 7, 18C9.61, 18 11.83, 16.33 12.65, 14H17V18H21V14H23V10H12.65Z" class="i pk" transform="translate(53.02370666503906, 48) scale(0.65)"></path><text x="13" y="86" class="tf fk">header<tspan x="113.74" class="ty">integer</tspan></text><text x="13" y="111" class="tf">src<tspan x="113.74" class="ty">file</tspan></text><text x="13" y="136" class="tf">_order<tspan x="113.74" class="ty">integer</tspan></text></svg><svg width="126.97" height="175" x="747.76" y="550" id="h1911158802" class="t"><rect height="40" width="126.97" class="th"></rect><text x="13" y="25" class="tht">app_comments</text><rect height="135" width="126.97" class="t-bg"></rect><text x="13" y="61" class="tf pk">id<tspan x="113.97" class="ty">integer</tspan></text><path d="M7,14A2,2 0 0,1 5,12A2,2 0 0,1 7,10A2,2 0 0,1 9,12A2,2 0 0,1 7,14M12.65,10C11.83,7.67 9.61,6 7, 6A6, 6 0 0, 0 1, 12A6, 6 0 0, 0 7, 18C9.61, 18 11.83, 16.33 12.65, 14H17V18H21V14H23V10H12.65Z" class="i pk" transform="translate(53.25370666503906, 48) scale(0.65)"></path><text x="13" y="86" class="tf fk">author<tspan x="113.97" class="ty">integer</tspan></text><text x="13" y="111" class="tf">content<tspan x="113.97" class="ty">text</tspan></text><text x="13" y="136" class="tf">date<tspan x="113.97" class="ty">datetime</tspan></text><text x="13" y="161" class="tf fk">record<tspan x="113.97" class="ty">integer</tspan></text></svg><svg width="216.29" height="225" x="1073.9" y="53.33" id="h2720092501" class="t"><rect height="40" width="216.29" class="th"></rect><text x="13" y="25" class="tht">app_profile</text><rect height="185" width="216.29" class="t-bg"></rect><text x="13" y="61" class="tf fk">user<tspan x="203.29" class="ty">integer</tspan></text><text x="13" y="86" class="tf">avatar<tspan x="203.29" class="ty">file</tspan></text><text x="13" y="111" class="tf">bio<tspan x="203.29" class="ty">text</tspan></text><text x="13" y="136" class="tf">balance<tspan x="203.29" class="ty">integer</tspan></text><text x="13" y="161" class="tf">is_premium<tspan x="203.29" class="ty">boolean</tspan></text><text x="13" y="186" class="tf">is_verified<tspan x="203.29" class="ty">boolean</tspan></text><text x="13" y="211" class="tf">has_2step_verification<tspan x="203.29" class="ty">boolean</tspan></text></svg><svg width="157.39" height="100" x="727.78" y="100.01" id="h1469962919" class="t"><rect height="40" width="157.39" class="th"></rect><text x="13" y="25" class="tht">app_provided_users</text><rect height="60" width="157.39" class="t-bg"></rect><text x="13" y="61" class="tf fk">user<tspan x="144.39" class="ty">integer</tspan></text><text x="13" y="86" class="tf fk">record<tspan x="144.39" class="ty">integer</tspan></text></svg><svg width="134.16" height="100" x="735.01" y="273.33" id="h1747560114" class="t"><rect height="40" width="134.16" class="th"></rect><text x="13" y="25" class="tht">app_rated_users</text><rect height="60" width="134.16" class="t-bg"></rect><text x="13" y="61" class="tf fk">user<tspan x="121.16" class="ty">int</tspan></text><text x="13" y="86" class="tf fk">record<tspan x="121.16" class="ty">int</tspan></text></svg></g></g><text class="qdbd-link" x="10" y="20">www.quickdatabasediagrams.com</text></svg>